<svg width="45" height="40" viewBox="0 0 45 40" fill="none" xmlns="http://www.w3.org/2000/svg">
<path d="M31.3363 0.705078C32.1201 0.853266 32.9129 0.965998 33.6867 1.15964C39.552 2.59879 43.9371 7.60354 44.6127 13.6083C45.048 17.3849 43.9894 21.182 41.6628 24.1886C39.3363 27.1953 35.9262 29.1732 32.161 29.6999C31.5462 29.7841 30.9258 29.8212 30.3053 29.8108C29.9225 29.8108 29.7143 29.9263 29.5243 30.259C27.9313 33.0537 26.3193 35.8383 24.7127 38.623C24.6454 38.7394 24.5754 38.853 24.4472 39.0676V25.2943H24.9118C26.6981 25.2943 28.4863 25.2943 30.2762 25.2943C35.1723 25.287 39.5347 21.3959 40.0839 16.5476C40.7067 11.0419 37.0835 6.25167 31.6082 5.358C31.1296 5.28375 30.646 5.24667 30.1616 5.24708C28.2705 5.23526 26.3793 5.24254 24.4336 5.24254V0.705078H31.3363Z" fill="#E2504B"/>
<path d="M21.1577 0.705078V5.24253H15.457C10.3008 5.24253 5.87113 9.23543 5.43652 14.2729C4.98192 19.5313 8.46602 24.1651 13.604 25.1161C14.199 25.2245 14.8022 25.2814 15.4069 25.2861C17.2981 25.3079 19.1893 25.2943 21.1204 25.2943V29.7608C21.0986 29.7808 21.0877 29.8008 21.0768 29.7999C18.2228 29.7463 15.3488 30.0881 12.5166 29.539C6.47666 28.368 1.74876 23.2987 0.973197 17.1912C-0.021481 9.39543 5.18467 2.30151 12.9166 0.917814C13.3603 0.83872 13.8067 0.77599 14.2513 0.705078H21.1577Z" fill="#E2504B"/>
</svg>
